<mxfile host="app.diagrams.net" modified="2024-05-08T03:52:46.046Z" agent="Mozilla/5.0 (Windows NT 10.0; Win64; x64) AppleWebKit/537.36 (KHTML, like Gecko) Chrome/124.0.0.0 Safari/537.36 Edg/124.0.0.0" etag="KWf6CklsMM-k0UBbeq3b" version="24.3.1" type="github">
  <diagram name="Página-1" id="JwAfoxusu0FucOMjWyGv">
    <mxGraphModel dx="832" dy="481" grid="1" gridSize="11" guides="1" tooltips="1" connect="1" arrows="1" fold="1" page="1" pageScale="1" pageWidth="827" pageHeight="1169" math="0" shadow="0">
      <root>
        <mxCell id="0" />
        <mxCell id="1" parent="0" />
        <mxCell id="Qr470y7T7KggvgfLlDb5-39" style="edgeStyle=orthogonalEdgeStyle;rounded=0;orthogonalLoop=1;jettySize=auto;html=1;entryX=0;entryY=0.25;entryDx=0;entryDy=0;exitX=1;exitY=0.75;exitDx=0;exitDy=0;" edge="1" parent="1" source="Qr470y7T7KggvgfLlDb5-2" target="Qr470y7T7KggvgfLlDb5-16">
          <mxGeometry relative="1" as="geometry" />
        </mxCell>
        <mxCell id="Qr470y7T7KggvgfLlDb5-2" value="&lt;font face=&quot;Times New Roman&quot; style=&quot;font-size: 17px;&quot;&gt;Repositório GitHub&lt;/font&gt;" style="rounded=0;whiteSpace=wrap;html=1;fillColor=#dae8fc;strokeColor=#6c8ebf;gradientColor=#7ea6e0;labelBackgroundColor=none;labelBorderColor=none;textShadow=1;" vertex="1" parent="1">
          <mxGeometry x="10" y="120" width="120" height="60" as="geometry" />
        </mxCell>
        <mxCell id="Qr470y7T7KggvgfLlDb5-16" value="&lt;font face=&quot;Courier New&quot;&gt;&lt;i style=&quot;&quot;&gt;CI/CD Pipeline&lt;/i&gt;&amp;nbsp;&lt;/font&gt;&lt;div&gt;&lt;font face=&quot;m6iIhlLjGezN6tfrES17&quot;&gt;(Github Actions)&amp;nbsp;&lt;/font&gt;&lt;/div&gt;" style="rounded=0;whiteSpace=wrap;html=1;fillColor=#dae8fc;gradientColor=#7ea6e0;strokeColor=#6c8ebf;" vertex="1" parent="1">
          <mxGeometry x="265" y="125" width="120" height="60" as="geometry" />
        </mxCell>
        <mxCell id="Qr470y7T7KggvgfLlDb5-18" value="" style="endArrow=classic;html=1;rounded=0;" edge="1" parent="1">
          <mxGeometry width="50" height="50" relative="1" as="geometry">
            <mxPoint x="390" y="160" as="sourcePoint" />
            <mxPoint x="460" y="160" as="targetPoint" />
          </mxGeometry>
        </mxCell>
        <mxCell id="Qr470y7T7KggvgfLlDb5-19" value="&lt;font face=&quot;Courier New&quot;&gt;Ambiente de Testes&amp;nbsp;&lt;/font&gt;&lt;div&gt;&lt;font face=&quot;Courier New&quot;&gt;(testing)&amp;nbsp;&lt;/font&gt;&lt;/div&gt;" style="rounded=0;whiteSpace=wrap;html=1;fillColor=#fff2cc;gradientColor=#ffd966;strokeColor=#d6b656;" vertex="1" parent="1">
          <mxGeometry x="470" y="125" width="120" height="60" as="geometry" />
        </mxCell>
        <mxCell id="Qr470y7T7KggvgfLlDb5-20" value="" style="endArrow=classic;html=1;rounded=0;exitX=0.442;exitY=1.017;exitDx=0;exitDy=0;exitPerimeter=0;" edge="1" parent="1" source="Qr470y7T7KggvgfLlDb5-2">
          <mxGeometry width="50" height="50" relative="1" as="geometry">
            <mxPoint x="370" y="250" as="sourcePoint" />
            <mxPoint x="63" y="330" as="targetPoint" />
          </mxGeometry>
        </mxCell>
        <mxCell id="Qr470y7T7KggvgfLlDb5-21" value="&lt;font face=&quot;Courier New&quot; style=&quot;font-size: 13px;&quot;&gt;Verificação do Código Fonte e Instalação de Dependências&amp;nbsp;&lt;/font&gt;" style="shape=cylinder3;whiteSpace=wrap;html=1;boundedLbl=1;backgroundOutline=1;size=15;fillColor=#d5e8d4;strokeColor=#82b366;" vertex="1" parent="1">
          <mxGeometry x="10" y="340" width="110" height="150" as="geometry" />
        </mxCell>
        <mxCell id="Qr470y7T7KggvgfLlDb5-23" value="" style="endArrow=classic;html=1;rounded=0;exitX=1;exitY=0;exitDx=0;exitDy=45;exitPerimeter=0;" edge="1" parent="1" source="Qr470y7T7KggvgfLlDb5-21">
          <mxGeometry width="50" height="50" relative="1" as="geometry">
            <mxPoint x="120" y="420" as="sourcePoint" />
            <mxPoint x="230" y="385" as="targetPoint" />
          </mxGeometry>
        </mxCell>
        <mxCell id="Qr470y7T7KggvgfLlDb5-24" value="&lt;b&gt;&lt;font style=&quot;font-size: 22px;&quot;&gt;Build&lt;/font&gt;&lt;/b&gt;" style="text;html=1;align=center;verticalAlign=middle;resizable=0;points=[];autosize=1;strokeColor=none;fillColor=none;" vertex="1" parent="1">
          <mxGeometry x="120" y="343" width="80" height="40" as="geometry" />
        </mxCell>
        <mxCell id="Qr470y7T7KggvgfLlDb5-25" value="&lt;font face=&quot;Courier New&quot; style=&quot;font-size: 14px;&quot;&gt;Testes Unitários, Instalação de Node js e Mocha&lt;/font&gt;" style="shape=cube;whiteSpace=wrap;html=1;boundedLbl=1;backgroundOutline=1;darkOpacity=0.05;darkOpacity2=0.1;align=center;fillColor=#1ba1e2;fontColor=#ffffff;strokeColor=#006EAF;" vertex="1" parent="1">
          <mxGeometry x="240" y="360" width="140" height="130" as="geometry" />
        </mxCell>
        <mxCell id="Qr470y7T7KggvgfLlDb5-26" value="" style="endArrow=classic;html=1;rounded=0;" edge="1" parent="1">
          <mxGeometry width="50" height="50" relative="1" as="geometry">
            <mxPoint x="240" y="460" as="sourcePoint" />
            <mxPoint x="130" y="460" as="targetPoint" />
          </mxGeometry>
        </mxCell>
        <mxCell id="Qr470y7T7KggvgfLlDb5-27" value="" style="endArrow=classic;html=1;rounded=0;" edge="1" parent="1">
          <mxGeometry width="50" height="50" relative="1" as="geometry">
            <mxPoint x="320" y="190" as="sourcePoint" />
            <mxPoint x="320" y="340" as="targetPoint" />
          </mxGeometry>
        </mxCell>
        <mxCell id="Qr470y7T7KggvgfLlDb5-28" value="" style="endArrow=classic;html=1;rounded=0;exitX=0.986;exitY=0.315;exitDx=0;exitDy=0;exitPerimeter=0;" edge="1" parent="1" source="Qr470y7T7KggvgfLlDb5-25">
          <mxGeometry width="50" height="50" relative="1" as="geometry">
            <mxPoint x="460" y="400" as="sourcePoint" />
            <mxPoint x="610" y="400" as="targetPoint" />
          </mxGeometry>
        </mxCell>
        <mxCell id="Qr470y7T7KggvgfLlDb5-30" value="" style="endArrow=classic;html=1;rounded=0;" edge="1" parent="1">
          <mxGeometry width="50" height="50" relative="1" as="geometry">
            <mxPoint x="510" y="190" as="sourcePoint" />
            <mxPoint x="510" y="340" as="targetPoint" />
          </mxGeometry>
        </mxCell>
        <mxCell id="Qr470y7T7KggvgfLlDb5-31" value="&lt;font style=&quot;font-size: 18px;&quot;&gt;Implantação&amp;nbsp;&lt;/font&gt;" style="text;html=1;align=center;verticalAlign=middle;resizable=0;points=[];autosize=1;strokeColor=none;fillColor=none;fontStyle=1" vertex="1" parent="1">
          <mxGeometry x="440" y="348" width="130" height="40" as="geometry" />
        </mxCell>
        <mxCell id="Qr470y7T7KggvgfLlDb5-36" value="&lt;font face=&quot;Courier New&quot;&gt;Artefato&amp;nbsp;&lt;/font&gt;&lt;div&gt;&lt;font face=&quot;kBjsHSARuZzPJKw0IOR4&quot;&gt;de Release Criado&amp;nbsp;&lt;/font&gt;&lt;div&gt;&lt;font face=&quot;kBjsHSARuZzPJKw0IOR4&quot;&gt;com Sucesso&amp;nbsp;&lt;/font&gt;&lt;/div&gt;&lt;/div&gt;" style="strokeWidth=2;html=1;shape=mxgraph.flowchart.decision;whiteSpace=wrap;fontStyle=1;fillColor=#fa6800;fontColor=#000000;strokeColor=#C73500;" vertex="1" parent="1">
          <mxGeometry x="430" y="410" width="130" height="120" as="geometry" />
        </mxCell>
        <mxCell id="Qr470y7T7KggvgfLlDb5-37" value="&lt;font face=&quot;Courier New&quot;&gt;Notificação de Erro por&amp;nbsp;&lt;/font&gt;&lt;div&gt;&lt;font face=&quot;oVSMjsVIPvIEIzewQu93&quot;&gt;e-mail&amp;nbsp;&lt;/font&gt;&lt;/div&gt;" style="strokeWidth=2;html=1;shape=mxgraph.flowchart.terminator;whiteSpace=wrap;fillColor=#e6d0de;gradientColor=#d5739d;strokeColor=#996185;" vertex="1" parent="1">
          <mxGeometry x="610" y="350" width="160" height="88" as="geometry" />
        </mxCell>
        <mxCell id="Qr470y7T7KggvgfLlDb5-40" value="&lt;font style=&quot;font-size: 19px;&quot;&gt;Push&amp;nbsp;&lt;/font&gt;" style="text;html=1;align=center;verticalAlign=middle;resizable=0;points=[];autosize=1;strokeColor=none;fillColor=none;fontStyle=1" vertex="1" parent="1">
          <mxGeometry x="125" y="135" width="70" height="40" as="geometry" />
        </mxCell>
        <mxCell id="Qr470y7T7KggvgfLlDb5-41" value="Main&amp;nbsp;" style="text;html=1;align=center;verticalAlign=middle;resizable=0;points=[];autosize=1;strokeColor=none;fillColor=none;fontSize=18;fontStyle=1" vertex="1" parent="1">
          <mxGeometry x="200" y="105" width="70" height="40" as="geometry" />
        </mxCell>
      </root>
    </mxGraphModel>
  </diagram>
</mxfile>
